<svg width="25" height="17" viewBox="0 0 25 17" fill="none" xmlns="http://www.w3.org/2000/svg">
<g clip-path="url(#clip0_407_194)">
<path d="M0 0H25V17H0V0Z" fill="black"/>
<path d="M0 0H25V11.3333H0V0Z" fill="white"/>
<path d="M0 0H25V5.66667H0V0Z" fill="#CE1126"/>
<path d="M12.5224 8.56806L14.4248 10.3695L14.2894 7.09782C14.2695 6.60198 13.847 6.71574 13.5402 6.8946C13.2293 7.09782 12.8747 7.09782 12.5 6.96365C12.1254 7.09781 11.7707 7.09781 11.4599 6.8946C11.1531 6.71575 10.7307 6.60197 10.7107 7.09781L10.5752 10.3695L12.5224 8.56806Z" fill="white" stroke="#C09300" stroke-width="0.2" stroke-linejoin="round"/>
<path d="M10.9295 6.98395L10.798 10.1663L10.5748 10.3694L10.7104 7.09779C10.7741 7.05308 10.8857 6.98398 10.9295 6.98398V6.98395ZM11.1967 7.21175L11.0852 9.8738L10.8621 10.1067L10.9975 7.03283C11.0414 7.07751 11.1729 7.18724 11.1967 7.21161L11.1967 7.21175ZM11.4398 7.4149L11.3522 9.63515L11.1729 9.81393L11.2845 7.28077C11.3282 7.32548 11.4159 7.39054 11.4398 7.4149ZM11.7029 7.5288L11.6152 9.42109L11.4398 9.56615L11.5275 7.45972C11.5713 7.48003 11.659 7.5288 11.7029 7.5288ZM11.9459 7.5288L11.8821 9.10574L11.7028 9.28461L11.7706 7.54914C11.8143 7.54914 11.9259 7.54914 11.9459 7.5288Z" fill="#C09300"/>
<path d="M14.0701 6.98395L14.2016 10.1663L14.4248 10.3694L14.2893 7.09779C14.2256 7.05308 14.1139 6.98398 14.0701 6.98398V6.98395ZM13.8029 7.21175L13.9145 9.8738L14.1376 10.1067L14.0021 7.03283C13.9582 7.07751 13.8267 7.18724 13.8029 7.21161L13.8029 7.21175ZM13.5598 7.4149L13.6475 9.63515L13.8268 9.81393L13.7152 7.28077C13.6714 7.32548 13.5838 7.39054 13.5598 7.4149ZM13.2968 7.5288L13.3845 9.42109L13.5598 9.56615L13.4721 7.45972C13.4283 7.48003 13.3406 7.5288 13.2968 7.5288ZM13.0537 7.5288L13.1175 9.10574L13.2968 9.28461L13.2291 7.54914C13.1853 7.54914 13.0737 7.54914 13.0537 7.5288Z" fill="#C09300"/>
<path d="M12.5876 8.92676L12.8546 10.1665L12.7669 10.2559L12.6753 10.1868L12.5238 9.08128L12.5876 10.1868L12.4999 10.3006L12.4122 10.1868L12.476 9.08128L12.3246 10.1868L12.2329 10.2559L12.1453 10.1665L12.4122 8.92676L12.5876 8.92676Z" fill="#C09300"/>
<path d="M11.4983 10.219L11.9487 8.58889L12.3039 8.99922L12.0235 10.301L11.4983 10.219Z" fill="white" stroke="#C09300" stroke-width="0.2" stroke-linejoin="round"/>
<mask id="path-9-inside-1_407_194" fill="white">
<path d="M11.7268 9.03667L11.7906 9.19513L12.1352 8.85944"/>
</mask>
<path d="M11.7906 9.19513L11.605 9.26979C11.6299 9.33166 11.684 9.37706 11.7493 9.39082C11.8145 9.40459 11.8824 9.38493 11.9301 9.33839L11.7906 9.19513ZM11.5413 9.11133L11.605 9.26979L11.9761 9.12047L11.9123 8.96201L11.5413 9.11133ZM11.9301 9.33839L12.2747 9.00269L11.9956 8.71618L11.651 9.05188L11.9301 9.33839Z" fill="#C09300" mask="url(#path-9-inside-1_407_194)"/>
<mask id="path-11-inside-2_407_194" fill="white">
<path d="M11.9654 8.63947L12.0375 9.32926L12.2567 9.03663M12.169 9.15031L12.2887 9.57177L12.169 9.15031ZM12.3357 9.41692L12.0935 9.79209L12.3357 9.41692ZM12.169 10.1665L12.0915 9.7926L12.0239 9.41228L11.8616 9.63636L11.7905 9.378L11.5634 9.61556L11.6789 10.0477L11.8383 9.78035L11.9259 10.0527L12.0896 9.79311M11.5273 10.2559L11.6746 10.045L11.7705 10.3696L11.902 10.142L11.9897 10.4144"/>
</mask>
<path d="M12.0375 9.32926L11.8386 9.35006C11.8471 9.4319 11.905 9.50015 11.9843 9.52205C12.0636 9.54395 12.1482 9.51503 12.1976 9.44916L12.0375 9.32926ZM12.0915 9.7926L11.8946 9.82765L11.8957 9.83319L12.0915 9.7926ZM12.0239 9.41228L12.2208 9.37725C12.2067 9.29823 12.1468 9.23526 12.0686 9.21733C11.9903 9.1994 11.9089 9.22998 11.8619 9.295L12.0239 9.41228ZM11.8616 9.63636L11.6688 9.68947C11.6892 9.76361 11.7504 9.81948 11.826 9.83317C11.9017 9.84686 11.9785 9.81594 12.0236 9.75365L11.8616 9.63636ZM11.7905 9.378L11.9833 9.3249C11.9642 9.25547 11.9092 9.20168 11.8394 9.18407C11.7696 9.16646 11.6957 9.18775 11.6459 9.23981L11.7905 9.378ZM11.5634 9.61556L11.4188 9.47737C11.3706 9.52782 11.3522 9.59977 11.3702 9.6672L11.5634 9.61556ZM11.6789 10.0477L11.4857 10.0993C11.5064 10.177 11.5717 10.2347 11.6513 10.2458C11.731 10.2568 11.8095 10.2192 11.8507 10.1501L11.6789 10.0477ZM11.8383 9.78035L12.0287 9.71908C12.0046 9.64427 11.9389 9.5905 11.8609 9.58163C11.7828 9.57276 11.7067 9.61044 11.6665 9.67793L11.8383 9.78035ZM11.9259 10.0527L11.7356 10.114C11.7594 10.1879 11.8238 10.2414 11.9009 10.2511C11.978 10.2609 12.0537 10.2251 12.0951 10.1593L11.9259 10.0527ZM11.6746 10.045L11.8664 9.9883C11.8446 9.91459 11.7825 9.85989 11.7066 9.84756C11.6308 9.83524 11.5545 9.86748 11.5106 9.9305L11.6746 10.045ZM11.7705 10.3696L11.5787 10.4263C11.6013 10.5029 11.6675 10.5587 11.7469 10.5682C11.8262 10.5776 11.9036 10.5389 11.9436 10.4696L11.7705 10.3696ZM11.902 10.142L12.0923 10.0807C12.0681 10.0054 12.0018 9.95151 11.9232 9.94313C11.8445 9.93475 11.7684 9.97348 11.7288 10.0419L11.902 10.142ZM11.7665 8.66026L11.8386 9.35006L12.2364 9.30847L12.1643 8.61867L11.7665 8.66026ZM12.1976 9.44916L12.4168 9.15653L12.0966 8.91674L11.8774 9.20937L12.1976 9.44916ZM11.9766 9.20496L12.0963 9.62642L12.4811 9.51712L12.3614 9.09566L11.9766 9.20496ZM12.1676 9.30846L11.9255 9.68363L12.2615 9.90055L12.5037 9.52539L12.1676 9.30846ZM12.3649 10.1259L12.2874 9.75201L11.8957 9.83319L11.9732 10.2071L12.3649 10.1259ZM12.2884 9.75757L12.2208 9.37725L11.827 9.44731L11.8946 9.82763L12.2884 9.75757ZM11.8619 9.295L11.6996 9.51908L12.0236 9.75365L12.1859 9.52957L11.8619 9.295ZM12.0545 9.58326L11.9833 9.3249L11.5977 9.4311L11.6688 9.68947L12.0545 9.58326ZM11.6459 9.23981L11.4188 9.47737L11.708 9.75375L11.9351 9.51619L11.6459 9.23981ZM11.3702 9.6672L11.4857 10.0993L11.8721 9.99603L11.7566 9.56392L11.3702 9.6672ZM11.8507 10.1501L12.0101 9.88277L11.6665 9.67793L11.5071 9.94526L11.8507 10.1501ZM11.6479 9.84163L11.7356 10.114L12.1163 9.99142L12.0287 9.71908L11.6479 9.84163ZM12.0951 10.1593L12.2588 9.89975L11.9204 9.68646L11.7567 9.94606L12.0951 10.1593ZM11.6913 10.3703L11.8386 10.1594L11.5106 9.9305L11.3633 10.1414L11.6913 10.3703ZM11.4828 10.1016L11.5787 10.4263L11.9623 10.3129L11.8664 9.9883L11.4828 10.1016ZM11.9436 10.4696L12.0751 10.2421L11.7288 10.0419L11.5973 10.2695L11.9436 10.4696ZM11.7116 10.2033L11.7993 10.4757L12.1801 10.3531L12.0923 10.0807L11.7116 10.2033Z" fill="#C09300" mask="url(#path-11-inside-2_407_194)"/>
<path d="M13.0976 8.38221L13.6276 10.3005L12.8983 10.4143L12.5875 8.9715L13.0976 8.3822L13.0976 8.38221Z" fill="white" stroke="#C09300" stroke-width="0.2" stroke-linejoin="round"/>
<path d="M13.2728 9.03667L13.2091 9.19513L12.8645 8.85944" stroke="#C09300" stroke-width="0.2" stroke-linejoin="round"/>
<path d="M13.0342 8.63947L12.9621 9.32926L12.743 9.03663M12.8306 9.15031L12.7109 9.57177M12.664 9.41692L12.9061 9.79209M12.8306 10.1665L12.9081 9.7926L12.9758 9.41228L13.138 9.63636L13.2091 9.378L13.4362 9.61556L13.3207 10.0477L13.1614 9.78035L13.0737 10.0527L12.9101 9.79311M13.4723 10.2559L13.3251 10.045L13.2292 10.3696L13.0977 10.142L13.01 10.4144" stroke="#C09300" stroke-width="0.2" stroke-linejoin="round"/>
<path d="M12.4998 11.1581C13.0538 11.1581 13.5838 11.1134 13.8946 11.024C14.0261 10.9996 14.0261 10.9305 14.0261 10.8411C14.1577 10.7964 14.0899 10.6379 14.1815 10.6379C14.0899 10.6623 14.07 10.4794 13.9584 10.5038C13.9584 10.3453 13.803 10.325 13.6714 10.3696C13.4084 10.4591 12.9421 10.4794 12.4998 10.4794C12.0574 10.4591 11.5951 10.4591 11.3281 10.3696C11.1966 10.325 11.0413 10.3453 11.0413 10.5038C10.9297 10.4794 10.9097 10.6623 10.8181 10.6379C10.9097 10.6379 10.842 10.7964 10.9735 10.8411C10.9735 10.9305 10.9735 10.9996 11.109 11.024C11.4158 11.1134 11.9459 11.1581 12.4998 11.1581H12.4998Z" fill="white" stroke="#C09300" stroke-width="0.2" stroke-linejoin="round"/>
<path d="M11.7467 10.3004C11.926 10.3248 12.1252 10.3451 12.2807 10.3248C12.3683 10.3248 12.4321 10.4792 12.2567 10.5037C12.1014 10.5239 11.8583 10.5037 11.7267 10.4792C11.6152 10.4589 11.3721 10.4142 11.2166 10.3694C11.0612 10.3004 11.1729 10.1664 11.2605 10.1866C11.396 10.2313 11.5713 10.2761 11.7467 10.3004L11.7467 10.3004ZM13.2531 10.3004C13.0737 10.3248 12.8745 10.3451 12.723 10.3248C12.6314 10.3248 12.5676 10.4792 12.743 10.5037C12.8984 10.5239 13.1415 10.5037 13.2729 10.4792C13.3845 10.4589 13.6276 10.4142 13.783 10.3694C13.9385 10.3004 13.8269 10.1664 13.7392 10.1866C13.6037 10.2313 13.4284 10.2761 13.2531 10.3004Z" fill="white" stroke="#C09300" stroke-width="0.2" stroke-linejoin="round"/>
<path d="M11.1967 10.2111C11.0612 10.1867 10.9974 10.3452 11.0413 10.4346C11.0612 10.3899 11.1529 10.3899 11.1728 10.3452C11.1967 10.2762 11.1529 10.2762 11.1967 10.2111ZM11.7267 10.6268C11.7267 10.5375 11.8143 10.5484 11.8143 10.459C11.8143 10.4143 11.7904 10.3452 11.7466 10.3452C11.7028 10.3452 11.6589 10.3899 11.6589 10.4346C11.639 10.524 11.7267 10.5375 11.7267 10.6268ZM12.3575 10.3695C12.4889 10.3695 12.4759 10.5484 12.4121 10.6378C12.4121 10.5728 12.3005 10.5484 12.3005 10.5038C12.3005 10.4346 12.4013 10.4346 12.3575 10.3695ZM13.8028 10.2111C13.9383 10.1867 14.0021 10.3452 13.9582 10.4346C13.9383 10.3899 13.8466 10.3899 13.8267 10.3452C13.8028 10.2762 13.8466 10.2762 13.8028 10.2111ZM13.2728 10.6268C13.2728 10.5375 13.1852 10.5484 13.1852 10.459C13.1852 10.4143 13.2091 10.3452 13.2529 10.3452C13.2967 10.3452 13.3406 10.3899 13.3406 10.4346C13.3605 10.524 13.2728 10.5375 13.2728 10.6268ZM12.6419 10.3695C12.5105 10.3695 12.5235 10.5484 12.5873 10.6378C12.5873 10.5728 12.6988 10.5484 12.6988 10.5038C12.6989 10.4346 12.5981 10.4346 12.6419 10.3695Z" fill="white" stroke="#C09300" stroke-width="0.05" stroke-linejoin="round"/>
<path d="M11.2406 10.2559C11.2845 10.2559 11.3522 10.2763 11.3721 10.3006L11.2405 10.2559L11.2406 10.2559ZM11.4595 10.3251C11.4834 10.3251 11.5711 10.3454 11.6149 10.3697L11.4594 10.3249L11.4595 10.3251ZM12.2567 10.4143C12.2129 10.4143 12.1252 10.4143 12.1014 10.4346L12.2566 10.4142L12.2567 10.4143ZM12.0137 10.4143C11.9898 10.3899 11.9021 10.3899 11.8583 10.4143H12.0136H12.0137ZM13.7592 10.2559C13.7154 10.2559 13.6516 10.2763 13.6277 10.3006L13.7592 10.2559ZM13.54 10.3251C13.5162 10.3251 13.4285 10.3454 13.3846 10.3697L13.5402 10.3249L13.54 10.3251ZM12.7428 10.4143C12.7867 10.4143 12.8744 10.4143 12.8982 10.4346L12.7427 10.4142L12.7428 10.4143ZM12.9859 10.4143C13.0098 10.3899 13.0975 10.3899 13.1413 10.4143H12.9857H12.9859Z" fill="white" stroke="#C09300" stroke-width="0.2" stroke-linejoin="round"/>
<path d="M11.2037 10.6132C11.1889 10.6103 11.1811 10.5983 11.1848 10.5842C11.1894 10.5669 11.2029 10.557 11.2157 10.5616C11.2239 10.5646 11.2388 10.5799 11.2388 10.5854C11.2389 10.5917 11.231 10.6067 11.2276 10.6068C11.2262 10.6068 11.2239 10.6081 11.2226 10.6097C11.2198 10.613 11.2111 10.6146 11.2037 10.6132ZM12.7295 10.7243C12.724 10.7222 12.7152 10.7096 12.7152 10.7037C12.7153 10.6928 12.7312 10.6749 12.741 10.6748C12.7459 10.6748 12.7592 10.6818 12.7642 10.6871C12.7732 10.6967 12.7713 10.7124 12.7599 10.7213C12.7543 10.7257 12.7377 10.7273 12.7295 10.7242L12.7295 10.7243ZM12.7395 10.7945C12.7279 10.7905 12.7236 10.7847 12.7226 10.7715C12.7217 10.7577 12.723 10.7556 12.7372 10.7476L12.7474 10.742L12.757 10.7464C12.7703 10.7524 12.7763 10.759 12.7767 10.7681C12.7772 10.778 12.7701 10.7881 12.7589 10.7931C12.7492 10.7976 12.7486 10.7976 12.7395 10.7945ZM11.3262 10.486C11.3166 10.4857 11.3034 10.4947 11.2958 10.4992C11.2778 10.5036 11.2568 10.5149 11.2394 10.5028C11.2223 10.4974 11.1994 10.5016 11.1969 10.5232C11.2013 10.5416 11.2266 10.5522 11.242 10.54C11.2534 10.5248 11.2845 10.5158 11.288 10.5417C11.2753 10.5614 11.2768 10.5873 11.2663 10.6082C11.2646 10.6211 11.2593 10.6334 11.2524 10.6445C11.2396 10.6458 11.2259 10.6442 11.2151 10.6524C11.1977 10.6534 11.18 10.6622 11.1699 10.6772C11.1587 10.6936 11.148 10.7102 11.1448 10.7303C11.1478 10.7509 11.1708 10.7568 11.1882 10.7578C11.2067 10.763 11.2252 10.7698 11.2437 10.7755C11.2739 10.7824 11.3021 10.7935 11.3323 10.8003C11.3763 10.8138 11.4225 10.82 11.4668 10.8322C11.4715 10.8337 11.4758 10.8351 11.4807 10.8357C11.4991 10.8396 11.5087 10.8192 11.5102 10.8038C11.5194 10.771 11.5263 10.7376 11.5354 10.7047C11.5416 10.6915 11.5492 10.6617 11.5241 10.6684C11.5098 10.6771 11.4977 10.6903 11.4798 10.6914C11.4556 10.6928 11.4694 10.7182 11.479 10.7286C11.4811 10.7452 11.4759 10.7651 11.4651 10.7782C11.4507 10.7875 11.4325 10.7766 11.4173 10.7728C11.4014 10.7731 11.3695 10.7648 11.3844 10.7427C11.3896 10.7264 11.3901 10.7085 11.3965 10.6923C11.4047 10.6749 11.4058 10.6559 11.4095 10.6374C11.3995 10.6154 11.3823 10.6446 11.3687 10.6471C11.3594 10.6538 11.3241 10.6566 11.3427 10.6737C11.3587 10.6861 11.3464 10.7076 11.3436 10.7233C11.3425 10.7451 11.3203 10.7503 11.3028 10.7454C11.2853 10.7445 11.2611 10.7313 11.2759 10.7118C11.2792 10.6955 11.2848 10.6794 11.288 10.6631L11.3071 10.6046C11.3101 10.587 11.3163 10.5704 11.3245 10.555C11.3249 10.5356 11.3377 10.5189 11.3375 10.4993C11.3362 10.4896 11.332 10.4862 11.3262 10.486ZM11.2264 10.6914C11.2286 10.691 11.2303 10.6913 11.2325 10.6923C11.2394 10.6953 11.2396 10.701 11.2325 10.7073C11.2293 10.7101 11.2258 10.7127 11.2246 10.7126C11.2116 10.7115 11.2078 10.7095 11.2073 10.7047C11.2068 10.7004 11.2081 10.6991 11.2168 10.6949C11.2211 10.6928 11.2241 10.6918 11.2264 10.6914ZM11.1976 10.8336C11.1838 10.8204 11.186 10.8108 11.2064 10.7953C11.2151 10.7887 11.2204 10.7894 11.2304 10.7987C11.2457 10.813 11.2463 10.822 11.2328 10.8342C11.2261 10.8403 11.2232 10.8415 11.2154 10.8416C11.2072 10.8417 11.2049 10.8406 11.1976 10.8336ZM11.2823 10.8597C11.2791 10.8589 11.2762 10.8575 11.2736 10.8555C11.2709 10.8535 11.2688 10.851 11.2671 10.8481C11.2655 10.8452 11.2645 10.842 11.2641 10.8387C11.2638 10.8354 11.2641 10.8321 11.265 10.8289C11.2686 10.8166 11.2707 10.8153 11.2884 10.8152C11.3082 10.815 11.3121 10.8184 11.3123 10.8362C11.3124 10.8462 11.3116 10.8485 11.3067 10.8532C11.301 10.8587 11.2899 10.8616 11.2823 10.8597ZM13.7576 10.862C13.7513 10.8566 13.75 10.8542 13.7499 10.8474C13.7499 10.8357 13.7564 10.8272 13.7707 10.8206C13.7896 10.8119 13.7973 10.8131 13.8045 10.8259C13.8139 10.8429 13.8135 10.8499 13.8021 10.8614C13.7959 10.8677 13.7947 10.8681 13.7803 10.8682C13.7662 10.8683 13.7646 10.8679 13.7576 10.862ZM11.3948 10.8945C11.3847 10.8918 11.3795 10.884 11.3793 10.8717C11.3792 10.8622 11.3799 10.8607 11.3864 10.8555C11.3906 10.8522 11.3972 10.8493 11.4024 10.8486C11.4099 10.8475 11.4126 10.8482 11.4185 10.8525C11.4338 10.8634 11.4371 10.8743 11.4282 10.8848C11.4188 10.896 11.4099 10.8986 11.3948 10.8945ZM12.0037 10.9223C12.0015 10.9194 11.9965 10.9178 11.996 10.9142C11.9969 10.8984 11.9976 10.8825 12.0025 10.8675C12.0052 10.8527 12.0029 10.8372 12.0079 10.8227C12.0131 10.7965 12.0131 10.7694 12.0191 10.7433C12.0194 10.7299 12.0206 10.7164 12.0244 10.7035C12.0288 10.683 12.0248 10.6617 12.0307 10.6415C12.0301 10.6339 12.0387 10.6136 12.0462 10.6256C12.0571 10.6419 12.0715 10.6552 12.0856 10.6685C12.0978 10.6757 12.0866 10.6862 12.0782 10.6898C12.0667 10.6944 12.0639 10.7074 12.0647 10.7187C12.0631 10.7305 12.0585 10.7416 12.058 10.7536C12.0556 10.7712 12.0561 10.7891 12.0538 10.8068C12.0487 10.824 12.0507 10.8424 12.049 10.8602C12.0492 10.8715 12.044 10.8818 12.0447 10.8931C12.0433 10.9046 12.0428 10.9185 12.0334 10.9263C12.0242 10.931 12.011 10.9302 12.0037 10.9223H12.0037ZM12.8287 10.6446C12.8153 10.655 12.8033 10.6672 12.7914 10.6792C12.7749 10.6919 12.8049 10.6993 12.8087 10.7102C12.8131 10.7268 12.8128 10.7445 12.8139 10.7615C12.8189 10.7771 12.8211 10.7938 12.82 10.8102C12.8186 10.8278 12.796 10.8241 12.7862 10.8341C12.7725 10.84 12.7671 10.8537 12.7566 10.8633C12.7498 10.877 12.748 10.8938 12.7471 10.9094C12.7481 10.9221 12.7387 10.9363 12.7471 10.9475C12.7482 10.949 12.7495 10.9512 12.7506 10.9528C12.7534 10.9569 12.7601 10.9536 12.7645 10.9545C12.7784 10.9537 12.793 10.9559 12.8061 10.9501C12.8397 10.9442 12.8737 10.9437 12.9077 10.9421C12.9285 10.9428 12.9485 10.9354 12.9693 10.9359C12.9856 10.9396 12.993 10.9216 12.9928 10.9085C12.9835 10.89 12.9915 10.868 12.9841 10.8492C12.9776 10.8301 12.9801 10.8087 12.9771 10.789C12.9767 10.7734 12.9574 10.7677 12.9476 10.7792C12.9381 10.789 12.9228 10.7909 12.9155 10.8031C12.9073 10.8202 12.9329 10.8202 12.9372 10.8332C12.9421 10.8464 12.9405 10.861 12.9415 10.8748C12.9447 10.8916 12.9268 10.8926 12.9155 10.8943C12.9006 10.9 12.8797 10.9038 12.8712 10.8855C12.8659 10.8719 12.8667 10.8573 12.8652 10.843C12.8648 10.8177 12.8588 10.7929 12.8573 10.7677C12.8559 10.7366 12.8507 10.7058 12.8487 10.6747C12.8484 10.6618 12.8467 10.6408 12.8287 10.6446V10.6446ZM12.8113 10.8784L12.82 10.8793L12.8209 10.8899L12.8218 10.9005L12.8105 10.9041C12.8068 10.9052 12.803 10.9061 12.7992 10.9067C12.7974 10.9056 12.7957 10.9044 12.794 10.9032C12.7879 10.8987 12.7894 10.8923 12.7974 10.8837C12.802 10.8789 12.8041 10.8779 12.8113 10.8784H12.8113ZM11.979 10.6155C11.9684 10.6193 11.955 10.6351 11.9443 10.6349C11.9198 10.6367 11.9232 10.661 11.9408 10.6695C11.9431 10.6768 11.9409 10.6861 11.9416 10.6943C11.9451 10.7166 11.9312 10.7346 11.9338 10.7571C11.9326 10.7818 11.9253 10.8058 11.9243 10.8306C11.9174 10.8562 11.9173 10.8825 11.913 10.9085C11.9101 10.9319 11.8936 10.9236 11.8791 10.9174C11.879 10.9073 11.8784 10.8974 11.8783 10.8873C11.8843 10.8641 11.866 10.8574 11.8479 10.8545C11.8288 10.8564 11.8195 10.8397 11.8236 10.8226C11.8318 10.8127 11.8524 10.8155 11.8653 10.8138C11.8925 10.8196 11.8914 10.7823 11.8774 10.7695C11.8678 10.7515 11.8441 10.7438 11.8375 10.7252C11.8401 10.7007 11.8242 10.6762 11.8045 10.6642C11.7743 10.662 11.7514 10.6886 11.7403 10.7146C11.7277 10.7183 11.7152 10.7222 11.7029 10.727C11.6832 10.732 11.6552 10.7669 11.6821 10.7801C11.6972 10.7844 11.7432 10.7951 11.7229 10.8164C11.7115 10.8365 11.6895 10.8368 11.6699 10.8315C11.6498 10.8315 11.6275 10.8215 11.6283 10.7979C11.6242 10.7766 11.6249 10.7537 11.6153 10.7341C11.6111 10.7103 11.5847 10.7159 11.5831 10.7376C11.5628 10.7528 11.5655 10.7772 11.5797 10.7952C11.5885 10.8158 11.5798 10.8399 11.571 10.8589C11.5657 10.8837 11.5389 10.8846 11.5198 10.8926C11.5104 10.8963 11.4745 10.8904 11.4877 10.9112C11.5086 10.9187 11.5336 10.9255 11.5554 10.92C11.5782 10.9171 11.5981 10.9012 11.6092 10.8811C11.6245 10.8652 11.6509 10.8735 11.6708 10.8731C11.6923 10.8731 11.7142 10.8885 11.7351 10.8784C11.7411 10.8624 11.769 10.836 11.7776 10.8634C11.7761 10.8878 11.7973 10.9009 11.8193 10.8979C11.8433 10.8965 11.8344 10.9152 11.834 10.9298C11.8356 10.9563 11.8523 10.9701 11.8739 10.9811C11.8813 10.9832 11.8891 10.9825 11.8965 10.9811C11.9173 10.9745 11.9397 10.965 11.946 10.9413C11.9544 10.922 11.9546 10.9002 11.9607 10.8802C11.9657 10.8482 11.972 10.8162 11.9729 10.7837C11.9806 10.7543 11.9784 10.7232 11.9842 10.6934C11.9879 10.6712 11.9906 10.6491 11.9929 10.627C11.9903 10.6151 11.9853 10.6132 11.979 10.6155ZM11.7906 10.7332C11.7948 10.7337 11.7972 10.739 11.7976 10.7483C11.798 10.7586 11.8033 10.767 11.8097 10.7686C11.8148 10.7699 11.8143 10.7754 11.8088 10.7793C11.8056 10.7815 11.7999 10.7829 11.7897 10.7828C11.7737 10.7827 11.7637 10.7785 11.755 10.7695L11.7498 10.7642L11.7576 10.7589C11.7631 10.7545 11.7683 10.7497 11.7733 10.7447C11.7812 10.7365 11.7864 10.7327 11.7906 10.7332ZM13.6248 10.51C13.6091 10.5108 13.5932 10.5134 13.5788 10.5171C13.5499 10.5153 13.5354 10.5462 13.5632 10.5614C13.5799 10.6049 13.606 10.5524 13.6326 10.5561C13.6726 10.564 13.6759 10.608 13.6821 10.6411C13.6843 10.6739 13.6936 10.7057 13.7029 10.7367C13.7297 10.767 13.6829 10.786 13.663 10.7624C13.646 10.7436 13.6097 10.7205 13.5892 10.7465C13.5641 10.7573 13.5631 10.7915 13.5423 10.8014C13.5088 10.8118 13.5045 10.7697 13.4868 10.7518C13.4705 10.7284 13.4393 10.7264 13.4139 10.7181C13.402 10.6935 13.4082 10.6517 13.3835 10.6349C13.3628 10.6435 13.3248 10.6831 13.3566 10.7013C13.3876 10.7285 13.343 10.741 13.3288 10.7597C13.3085 10.7828 13.3052 10.8146 13.3019 10.8439C13.2669 10.8636 13.2601 10.8215 13.2559 10.7952C13.2532 10.7637 13.2271 10.7729 13.209 10.7845C13.1826 10.7955 13.1693 10.8211 13.1509 10.8412C13.1486 10.8595 13.1519 10.8796 13.1517 10.8988C13.1577 10.9217 13.1851 10.9109 13.2021 10.9094C13.2293 10.8978 13.2404 10.9272 13.2186 10.9439C13.2038 10.9631 13.1569 10.9531 13.1613 10.9837C13.1764 10.9856 13.1921 10.985 13.2073 10.9837C13.2376 10.9753 13.2701 10.9535 13.2732 10.9191C13.2772 10.8891 13.3196 10.8946 13.3427 10.8881C13.3716 10.8796 13.4064 10.8774 13.413 10.9147C13.4327 10.9358 13.4755 10.9596 13.4972 10.9306C13.5193 10.9169 13.5299 10.8927 13.5284 10.8669C13.5239 10.8446 13.5637 10.8438 13.5736 10.8562C13.5881 10.8806 13.6333 10.8734 13.6552 10.8598C13.6784 10.8423 13.6834 10.8115 13.7168 10.8111C13.7663 10.796 13.8178 10.7873 13.8661 10.7686C13.9053 10.7599 13.8603 10.7347 13.8505 10.7199C13.8207 10.7048 13.7947 10.7664 13.7611 10.7358C13.7351 10.7155 13.7369 10.677 13.7272 10.6473C13.7206 10.6088 13.7223 10.5645 13.6951 10.534C13.6764 10.5137 13.6511 10.5088 13.6248 10.51H13.6248ZM13.4356 10.7783C13.4391 10.7782 13.443 10.78 13.4495 10.7836C13.4616 10.7905 13.4703 10.8019 13.4703 10.8111C13.4703 10.8171 13.4688 10.8175 13.4599 10.8217C13.4544 10.8243 13.4482 10.8271 13.446 10.827C13.441 10.827 13.4286 10.8169 13.4286 10.8129C13.4286 10.8112 13.427 10.8047 13.4252 10.7996C13.4219 10.7905 13.4224 10.7906 13.4269 10.7845C13.4298 10.7806 13.4321 10.7784 13.4356 10.7783ZM13.617 10.7881C13.6273 10.7874 13.6335 10.7907 13.6378 10.7987C13.6429 10.808 13.6394 10.8152 13.6265 10.8208C13.6209 10.8233 13.6152 10.8253 13.6144 10.8253C13.6135 10.8252 13.6089 10.8224 13.604 10.8191C13.5965 10.814 13.5954 10.8116 13.5953 10.8058C13.5952 10.7968 13.605 10.7889 13.617 10.7881H13.617ZM13.3687 10.7907C13.3718 10.7902 13.3745 10.7919 13.3783 10.7951C13.3833 10.7995 13.3849 10.8031 13.3861 10.812C13.387 10.8182 13.3868 10.8262 13.3861 10.8297C13.3847 10.8361 13.3846 10.8358 13.3705 10.8359C13.3527 10.8361 13.351 10.8341 13.3514 10.8173C13.3516 10.8066 13.3517 10.8037 13.3574 10.7978C13.3619 10.7932 13.3657 10.7912 13.3687 10.7907ZM13.216 10.8315C13.2215 10.8328 13.2267 10.8371 13.2281 10.8438C13.2299 10.8529 13.2283 10.8569 13.2212 10.8607C13.215 10.8639 13.2008 10.865 13.1969 10.8624C13.1956 10.8616 13.193 10.8595 13.1916 10.8571C13.1898 10.8537 13.1901 10.852 13.1925 10.8501C13.1942 10.8487 13.196 10.8467 13.196 10.8456C13.196 10.8446 13.1979 10.841 13.2003 10.8377C13.2044 10.8322 13.2104 10.8301 13.216 10.8315ZM13.4729 10.8651C13.4778 10.8651 13.482 10.8668 13.485 10.8695C13.4902 10.8741 13.49 10.8809 13.4842 10.8855C13.4804 10.8884 13.46 10.8882 13.4529 10.8855C13.4498 10.8843 13.4486 10.8827 13.4486 10.8793C13.4485 10.8753 13.4496 10.8728 13.4564 10.8695C13.4621 10.8668 13.468 10.8651 13.4729 10.8651H13.4729ZM12.9959 11.0016C12.9933 10.9999 12.9893 10.9983 12.9933 10.9954C12.9981 10.9868 13.0077 10.9838 13.0162 10.9806C13.0314 10.9739 13.0445 10.9625 13.0543 10.9489C13.0557 10.9395 13.0661 10.9344 13.0661 10.9245C13.0662 10.9111 13.0669 10.8973 13.0637 10.8841C13.0602 10.8721 13.0512 10.8628 13.0408 10.8565C13.0336 10.8508 13.022 10.8492 13.0194 10.8391C13.0179 10.8294 13.0265 10.822 13.0294 10.8134C13.0356 10.8014 13.0408 10.7889 13.0475 10.7772C13.0547 10.7691 13.0658 10.7768 13.0695 10.7847C13.0748 10.7925 13.0794 10.801 13.0821 10.8101C13.0904 10.8195 13.0979 10.8305 13.1009 10.843C13.105 10.8518 13.1116 10.8601 13.1112 10.8704C13.1112 10.8822 13.1177 10.8927 13.1173 10.9046C13.1177 10.9205 13.1177 10.937 13.112 10.952C13.1081 10.9603 13.1003 10.9653 13.0951 10.9728C13.0863 10.9811 13.0765 10.9892 13.0651 10.9936C13.0571 10.9962 13.0524 11.0057 13.0424 11.0034C13.0281 11.0036 13.0136 11.0056 12.9994 11.0033C13.0003 11.0048 12.995 11.0007 12.9959 11.0016V11.0016ZM12.8056 11.0144C12.7989 11.0073 12.7974 11.0043 12.7974 10.9974C12.7973 10.9904 12.7986 10.9876 12.8052 10.9808C12.8174 10.9682 12.8233 10.9679 12.8443 10.9788C12.8644 10.9892 12.8712 10.9901 12.873 10.9827C12.8748 10.9757 12.8863 10.9692 12.8973 10.9691C12.9043 10.9691 12.9082 10.9705 12.9138 10.9749C12.9207 10.9804 12.9211 10.9813 12.9212 10.9941C12.9214 11.0073 12.9212 11.0078 12.9132 11.015C12.9055 11.0219 12.9042 11.0223 12.8947 11.0214C12.8825 11.0201 12.8753 11.0145 12.8733 11.0047C12.8719 10.9976 12.8694 10.9959 12.8676 11.0007C12.867 11.0023 12.864 11.0042 12.8609 11.005C12.8553 11.0064 12.8457 11.0126 12.8389 11.0191C12.8363 11.0216 12.8318 11.0228 12.8245 11.0229C12.8146 11.0229 12.8132 11.0223 12.8056 11.0144H12.8056ZM12.2551 10.7622C12.2366 10.7624 12.2167 10.7783 12.2143 10.7967C12.2185 10.8181 12.2359 10.8389 12.2247 10.8614C12.2324 10.8901 12.2036 10.901 12.1839 10.8844C12.172 10.8569 12.166 10.8267 12.1483 10.8021C12.126 10.7956 12.1162 10.832 12.1006 10.8446C12.1083 10.866 12.131 10.8851 12.1336 10.9119C12.139 10.9378 12.1235 10.9666 12.1014 10.98C12.0824 10.9986 12.0563 10.992 12.0329 10.996C12.0044 11.0129 12.0537 11.0191 12.0667 11.0199C12.0958 11.0229 12.126 11.019 12.1474 10.9969C12.1688 10.9865 12.1672 10.9488 12.1926 10.9446C12.2367 10.9426 12.2804 10.9515 12.3245 10.9526C12.3481 10.9583 12.3846 10.9497 12.4009 10.9676C12.401 10.999 12.4271 11.0184 12.4521 11.0305C12.466 11.0344 12.4806 11.0169 12.4947 11.0137C12.5215 11.005 12.5133 10.9711 12.5294 10.9579C12.5752 10.9554 12.6215 10.9559 12.6674 10.9552C12.6762 10.9555 12.6787 10.9428 12.6848 10.9375C12.6838 10.9194 12.6831 10.9015 12.6804 10.8835C12.6716 10.8607 12.6819 10.8313 12.6657 10.8118C12.6426 10.8054 12.623 10.8269 12.5997 10.8286C12.574 10.8403 12.5523 10.8645 12.5511 10.8941C12.5359 10.9195 12.5114 10.8896 12.5198 10.8685C12.5189 10.8593 12.5218 10.8485 12.519 10.8401C12.5049 10.8229 12.4802 10.8285 12.4608 10.826C12.4325 10.8271 12.4049 10.8209 12.3766 10.8215C12.3518 10.8196 12.326 10.8237 12.302 10.8171C12.2733 10.8163 12.2773 10.7877 12.2724 10.7675C12.2674 10.7637 12.2612 10.7622 12.2551 10.7622ZM12.3106 10.8667C12.3202 10.8669 12.3292 10.8682 12.3384 10.8693C12.3504 10.8714 12.3631 10.8652 12.3749 10.8693C12.402 10.8741 12.4291 10.8729 12.4565 10.8756C12.4637 10.8754 12.4689 10.8808 12.4738 10.8853V10.9437C12.473 10.951 12.476 10.9607 12.4695 10.9659C12.4674 10.9673 12.4651 10.9689 12.4626 10.9694C12.455 10.9674 12.4471 10.9624 12.4435 10.9552C12.4423 10.9451 12.444 10.9353 12.4443 10.9251C12.4441 10.9225 12.4454 10.9184 12.4443 10.9163C12.4384 10.912 12.4317 10.9092 12.4244 10.9092C12.4008 10.9084 12.3776 10.9066 12.354 10.9057C12.3344 10.9044 12.3142 10.9074 12.295 10.9021C12.2876 10.8993 12.2779 10.9003 12.2733 10.8924C12.2668 10.8847 12.2762 10.8755 12.2829 10.872C12.2917 10.8679 12.3011 10.8665 12.3106 10.8667L12.3106 10.8667ZM12.624 10.8738C12.6284 10.8737 12.6298 10.8752 12.6318 10.8835L12.6353 10.8977C12.6363 10.901 12.6347 10.9021 12.6301 10.9039C12.6164 10.9092 12.6027 10.9086 12.598 10.9021C12.5958 10.8992 12.5983 10.8898 12.6023 10.8862C12.6103 10.8788 12.6192 10.8738 12.624 10.8738Z" fill="#C09300"/>
<path d="M12.8417 7.17097C12.8602 7.1721 12.8166 7.06987 12.8166 7.06987C12.8657 7.12099 13.0508 7.1332 13.0508 7.1332C12.9397 7.08316 12.8286 6.70548 12.8417 6.40444C12.8537 6.10229 12.7992 5.98341 12.7557 5.93898C12.7001 5.88231 12.5215 5.83233 12.4039 5.82565C12.3374 5.82233 12.3483 5.87676 12.3483 5.87676C12.2253 5.84454 12.1022 5.83233 12.0467 5.8701C11.9944 5.90566 11.9835 6.08339 12.0216 6.05228C12.1142 5.97675 12.1948 6.04563 12.2503 6.12782C12.2993 6.20004 12.2961 6.40444 12.2252 6.64326C12.1512 6.89432 11.9486 7.14538 11.9486 7.14538C12.0586 7.14538 12.2133 7.04542 12.2133 7.04542L12.1762 7.20205C12.2928 7.14538 12.3854 7.05763 12.3854 7.05763L12.4964 7.17649C12.5335 7.12651 12.6076 7.05763 12.6076 7.05763C12.6076 7.05763 12.7001 7.15762 12.8417 7.17097Z" fill="white" stroke="#C09300" stroke-width="0.2"/>
<path d="M12.392 6.44791C12.392 6.44791 12.3299 6.91337 12.2134 7.04557M12.49 6.43573C12.49 6.43573 12.4661 6.90671 12.3855 7.05781M12.577 6.45471C12.577 6.45471 12.577 6.97015 12.6075 7.0579M12.687 6.48021C12.687 6.48021 12.712 6.91346 12.8166 7.07008" stroke="#C09300" stroke-width="0.2"/>
<path d="M12.2797 6.22238C12.2743 6.1813 12.2645 6.14906 12.2503 6.12795C12.1948 6.04575 12.1142 5.97688 12.0216 6.05241C12.0216 6.05241 12.0532 5.95242 12.1207 5.94911C12.173 5.94577 12.2917 5.98909 12.3963 6.17127C12.3963 6.17127 12.319 6.15351 12.3005 6.17017C12.2656 6.20128 12.2797 6.22238 12.2797 6.22238ZM12.012 5.92913C12.0196 5.90358 12.0316 5.88026 12.0468 5.87026C12.1024 5.83249 12.2254 5.8447 12.3485 5.87692C12.3485 5.87692 12.3376 5.82249 12.404 5.82583C12.5217 5.83249 12.7003 5.8825 12.7558 5.93914C12.7688 5.95359 12.7841 5.97469 12.7972 6.00688H12.795C12.7678 5.96801 12.6905 5.97025 12.6719 5.97246C12.6425 5.9758 12.624 5.97467 12.5848 5.98467C12.5663 5.98912 12.538 5.99467 12.5227 6.00688C12.5108 6.01688 12.5009 6.05355 12.4824 6.05355C12.453 6.05355 12.4552 6.04578 12.4476 6.03689C12.4378 6.02467 12.4323 6.00688 12.4225 6.00799C12.392 6.01357 12.343 5.98912 12.281 5.93914C12.2189 5.88916 12.1949 5.87692 12.1143 5.88247C12.0348 5.88913 12.0098 5.93469 12.0098 5.93469L12.012 5.92913Z" fill="#C09300" stroke="#C09300" stroke-width="0.2"/>
<path d="M12.4671 6.00243C12.4852 6.00243 12.4998 5.98751 12.4998 5.96911C12.4998 5.95071 12.4852 5.93579 12.4671 5.93579C12.4491 5.93579 12.4344 5.95071 12.4344 5.96911C12.4344 5.98751 12.4491 6.00243 12.4671 6.00243Z" fill="white"/>
<path d="M12.4992 9.27162C13.4059 8.56028 13.3282 7.51826 13.3282 7.51826C13.3043 7.52314 13.2815 7.52558 13.2576 7.52558C13.0674 7.52558 12.6138 7.4146 12.5079 7.27362C12.3946 7.40122 11.931 7.52558 11.742 7.52558C11.7181 7.52558 11.6941 7.52314 11.6714 7.51826C11.6714 7.51826 11.5925 8.56025 12.4992 9.27162H12.4992Z" fill="white" stroke="#C09300" stroke-width="0.2"/>
<path d="M13.2559 7.59452L13.2324 7.59527C13.06 7.59527 12.6596 7.50506 12.5053 7.36981C12.3436 7.49475 11.9366 7.59527 11.7671 7.59527C11.7591 7.59527 11.7512 7.59428 11.7435 7.59282C11.7431 7.63223 11.7451 7.67307 11.7475 7.71022C11.7564 7.84908 11.7803 7.98843 11.8166 8.12253C11.9307 8.54456 12.1642 8.9032 12.4991 9.17526C12.8343 8.90297 13.0681 8.54399 13.1825 8.12165C13.2188 7.98758 13.2428 7.84824 13.2518 7.7094C13.2539 7.67053 13.2561 7.62293 13.2559 7.59452Z" stroke="#C09300" stroke-width="0.2"/>
<mask id="mask0_407_194" style="mask-type:luminance" maskUnits="userSpaceOnUse" x="11" y="7" width="3" height="3">
<path d="M13.2479 7.60027L13.2247 7.60101C13.0541 7.60101 12.6581 7.5118 12.5054 7.37799C12.3454 7.50163 11.9428 7.60101 11.775 7.60101C11.7671 7.60094 11.7593 7.60012 11.7516 7.59857L11.7555 7.71469C11.7644 7.8521 11.788 7.98994 11.8239 8.12258C11.9368 8.54012 12.1679 8.89494 12.4991 9.16415C12.8307 8.89472 13.0621 8.53959 13.1752 8.12174C13.2115 7.98848 13.2345 7.85182 13.2438 7.71384C13.2461 7.67599 13.2474 7.63808 13.2478 7.60016L13.2479 7.60027Z" fill="white"/>
</mask>
<g mask="url(#mask0_407_194)">
<path d="M11.739 7.35999H12.2462V9.18206H11.739V7.35999Z" fill="#C09300"/>
<path fill-rule="evenodd" clip-rule="evenodd" d="M12.2462 7.35999H12.7534V9.18206H12.2462V7.35999Z" fill="white"/>
<path fill-rule="evenodd" clip-rule="evenodd" d="M12.7534 7.35999H13.2606V9.18206H12.7534V7.35999Z" fill="#C09300"/>
</g>
</g>
<defs>
<clipPath id="clip0_407_194">
<rect width="25" height="17" fill="white"/>
</clipPath>
</defs>
</svg>
