<svg width="3264" height="3264" viewBox="0 0 3264 3264" fill="none" xmlns="http://www.w3.org/2000/svg">
<path d="M786 1336L1040 1484.94V2241.66L786 2393V1336Z" fill="white"/>
<path d="M2478 1336L2225 1484.94V2241.66L2478 2393V1336Z" fill="#621F9F"/>
<path d="M1040 1485L1236 1599V1893L1040 1779V1485Z" fill="white"/>
<path d="M1431 1485L1236 1599V1893L1431 1779V1485Z" fill="white"/>
<path d="M1431 1484.74L2479 871V1165.26L1431 1779V1484.74Z" fill="white"/>
<path d="M1370 1973.69L2478 1336V1619.42L1623.29 2122L1370 1973.69Z" fill="#621F9F"/>
<path d="M1370 1973.69L2478 1336V1619.42L1623.29 2122L1370 1973.69Z" fill="#621F9F"/>
<path d="M784 882L1491 1293.29L1240.9 1441L784 1173.81V882Z" fill="#621F9F"/>
<path d="M784 882L1491 1293.29L1240.9 1441L784 1173.81V882Z" fill="#621F9F"/>
</svg>
