<?xml version="1.0" encoding="UTF-8"?>
<!DOCTYPE svg PUBLIC "-//W3C//DTD SVG 1.1//EN" "http://www.w3.org/Graphics/SVG/1.1/DTD/svg11.dtd">
<svg xmlns="http://www.w3.org/2000/svg" version="1.1" width="3264px" height="3264px" style="shape-rendering:geometricPrecision; text-rendering:geometricPrecision; image-rendering:optimizeQuality; fill-rule:evenodd; clip-rule:evenodd" xmlns:xlink="http://www.w3.org/1999/xlink">
<g><path style="opacity:0.991" fill="#fefffe" d="M 2474.5,869.5 C 2475.82,872.768 2476.49,876.435 2476.5,880.5C 2478.47,974.823 2478.97,1069.16 2478,1163.5C 2477.75,1164.62 2477.25,1165.62 2476.5,1166.5C 2063.5,1408.33 1650.5,1650.17 1237.5,1892C 1233.56,1892.24 1229.89,1891.24 1226.5,1889C 1164.66,1852.58 1102.66,1816.41 1040.5,1780.5C 1039.77,1934.5 1038.94,2088.5 1038,2242.5C 954.249,2292.63 870.416,2342.63 786.5,2392.5C 785,2216.17 784.333,2039.84 784.5,1863.5C 784.333,1687.16 785,1510.83 786.5,1334.5C 935.918,1421.96 1085.42,1509.29 1235,1596.5C 1648.48,1354.52 2061.64,1112.19 2474.5,869.5 Z"/></g>
<g><path style="opacity:1" fill="#fdfefd" d="M 782.5,880.5 C 1018.52,1016.26 1254.02,1152.93 1489,1290.5C 1489.78,1291.94 1489.61,1293.28 1488.5,1294.5C 1406.06,1343.8 1323.23,1392.47 1240,1440.5C 1087.52,1352.6 935.524,1263.93 784,1174.5C 782.667,1076.51 782.167,978.505 782.5,880.5 Z"/></g>
<g><path style="opacity:1" fill="#fdfefd" d="M 2473.5,1334.5 C 2475.33,1359.81 2476.16,1385.48 2476,1411.5C 2478.07,1738.5 2477.9,2065.5 2475.5,2392.5C 2391.87,2342.7 2308.37,2292.7 2225,2242.5C 2224.06,2084.83 2223.23,1927.17 2222.5,1769.5C 2022.73,1887.47 1822.56,2004.8 1622,2121.5C 1537.11,2072.64 1452.61,2023.14 1368.5,1973C 1378.99,1965.25 1389.99,1958.25 1401.5,1952C 1759.39,1746.9 2116.72,1541.06 2473.5,1334.5 Z"/></g>
</svg>
