<?xml version="1.0" encoding="UTF-8"?>
<!DOCTYPE svg PUBLIC "-//W3C//DTD SVG 1.1//EN" "http://www.w3.org/Graphics/SVG/1.1/DTD/svg11.dtd">
<svg xmlns="http://www.w3.org/2000/svg" version="1.1" width="3264px" height="3264px" style="shape-rendering:geometricPrecision; text-rendering:geometricPrecision; image-rendering:optimizeQuality; fill-rule:evenodd; clip-rule:evenodd" xmlns:xlink="http://www.w3.org/1999/xlink">
<g><path style="opacity:0.996" fill="#fefffe" d="M 2476.5,870.5 C 2477.83,919.329 2478.5,968.495 2478.5,1018C 2478.33,1067.17 2478.17,1116.33 2478,1165.5C 2064.58,1407.79 1651.08,1649.96 1237.5,1892C 1234.58,1892.55 1231.91,1891.88 1229.5,1890C 1166.42,1853.04 1103.25,1816.21 1040,1779.5C 1039.83,1933.83 1039.33,2088.17 1038.5,2242.5C 954.5,2292.5 870.5,2342.5 786.5,2392.5C 785.167,2040.17 785.167,1687.83 786.5,1335.5C 936.003,1423.09 1085.67,1510.42 1235.5,1597.5C 1649.39,1355.39 2063.06,1113.06 2476.5,870.5 Z"/></g>
<g><path style="opacity:0.999" fill="#621e9f" d="M 783.5,881.5 C 1018.28,1017.39 1252.94,1153.56 1487.5,1290C 1489.26,1290.72 1490.09,1291.89 1490,1293.5C 1407.21,1343.15 1324.04,1392.15 1240.5,1440.5C 1088.21,1352.35 936.209,1263.69 784.5,1174.5C 783.5,1076.84 783.167,979.169 783.5,881.5 Z"/></g>
<g><path style="opacity:0.999" fill="#621e9f" d="M 2475.5,1335.5 C 2476.83,1511.33 2477.5,1687.5 2477.5,1864C 2477.17,2040.17 2476.83,2216.33 2476.5,2392.5C 2392.83,2342.5 2309.17,2292.5 2225.5,2242.5C 2224.67,2084.5 2224.17,1926.5 2224,1768.5C 2023.87,1886.81 1823.37,2004.48 1622.5,2121.5C 1538.04,2072.43 1453.71,2023.1 1369.5,1973.5C 1374.63,1969.76 1379.96,1966.26 1385.5,1963C 1749.06,1754.06 2112.39,1544.89 2475.5,1335.5 Z"/></g>
</svg>
